HIERARCHY
ROOT Hips
{
	OFFSET 0.000000 0.000000 0.000000
	CHANNELS 6 Xposition Yposition Zposition Xrotation Yrotation Zrotation
	JOINT LeftUpLeg_virtual
	{
		OFFSET 0.000000 0.000000 0.000000
		CHANNELS 3 Xrotation Yrotation Zrotation
		JOINT LeftUpLeg
		{
			OFFSET 10.205400 -3.823500 0.155100
			CHANNELS 3 Xrotation Yrotation Zrotation
			JOINT LeftLeg
			{
				OFFSET 0.708757 -12.982077 0.567790
				CHANNELS 3 Xrotation Yrotation Zrotation
				JOINT LeftFoot
				{
					OFFSET -0.708756 -10.717838 -2.184338
					CHANNELS 3 Xrotation Yrotation Zrotation
					JOINT LeftToeBase
					{
						OFFSET 0.108149 -7.191104 7.560241
						CHANNELS 3 Xrotation Yrotation Zrotation
						JOINT LeftToe_End
						{
							OFFSET 0.070230 0.081724 4.490308
							CHANNELS 3 Xrotation Yrotation Zrotation
							End Site
							{
								OFFSET 0 0 0
							}
						}
					}
				}
			}
		}
	}
	JOINT RightUpLeg_virtual
	{
		OFFSET 0.000000 0.000000 0.000000
		CHANNELS 3 Xrotation Yrotation Zrotation
		JOINT RightUpLeg
		{
			OFFSET -10.205400 -3.823500 0.005500
			CHANNELS 3 Xrotation Yrotation Zrotation
			JOINT RightLeg
			{
				OFFSET -0.708756 -12.982134 0.610632
				CHANNELS 3 Xrotation Yrotation Zrotation
				JOINT RightFoot
				{
					OFFSET 0.708754 -10.717769 -1.945823
					CHANNELS 3 Xrotation Yrotation Zrotation
					JOINT RightToeBase
					{
						OFFSET -0.108140 -7.191069 7.372968
						CHANNELS 3 Xrotation Yrotation Zrotation
						JOINT RightToe_End
						{
							OFFSET -0.070227 0.081735 4.479403
							CHANNELS 3 Xrotation Yrotation Zrotation
							End Site
							{
								OFFSET 0 0 0
							}
						}
					}
				}
			}
		}
	}
	JOINT Spine_virtual
	{
		OFFSET 0.000000 0.000000 0.000000
		CHANNELS 3 Xrotation Yrotation Zrotation
		JOINT Spine
		{
			OFFSET 0.000000 6.876099 0.125700
			CHANNELS 3 Xrotation Yrotation Zrotation
			JOINT Spine1
			{
				OFFSET 0.000000 5.730043 0.104720
				CHANNELS 3 Xrotation Yrotation Zrotation
				JOINT Spine1_split
				{
					OFFSET 0.000000 5.730043 0.104720
					CHANNELS 3 Xrotation Yrotation Zrotation
					JOINT Spine2
					{
						OFFSET 0.000000 5.730043 0.104720
						CHANNELS 3 Xrotation Yrotation Zrotation
						JOINT Neck_virtual
						{
							OFFSET 0.000000 0.000000 0.000000
							CHANNELS 3 Xrotation Yrotation Zrotation
							JOINT Neck
							{
								OFFSET 0.000000 10.314075 0.188496
								CHANNELS 3 Xrotation Yrotation Zrotation
								JOINT Head
								{
									OFFSET 0.000000 7.643700 -2.377400
									CHANNELS 3 Xrotation Yrotation Zrotation
									JOINT HeadTop_End
									{
										OFFSET 0.000000 43.788605 -13.619600
										CHANNELS 3 Xrotation Yrotation Zrotation
										End Site
										{
											OFFSET 0 0 0
										}
									}
								}
							}
						}
						JOINT LeftShoulder_virtual
						{
							OFFSET 0.000000 0.000000 0.000000
							CHANNELS 3 Xrotation Yrotation Zrotation
							JOINT LeftShoulder
							{
								OFFSET 2.196100 4.412489 0.087492
								CHANNELS 3 Xrotation Yrotation Zrotation
								JOINT LeftShoulder_split
								{
									OFFSET 2.196100 4.412489 0.087492
									CHANNELS 3 Xrotation Yrotation Zrotation
									JOINT LeftArm
									{
										OFFSET 8.771219 -2.981674 -0.026999
										CHANNELS 3 Xrotation Yrotation Zrotation
										JOINT LeftForeArm
										{
											OFFSET 8.512804 0.000000 -0.000000
											CHANNELS 3 Xrotation Yrotation Zrotation
											JOINT LeftHand
											{
												OFFSET 18.484802 0.000000 -0.000000
												CHANNELS 3 Xrotation Yrotation Zrotation
												End Site
												{
													OFFSET 0 0 0
												}
											}
										}
									}
								}
							}
						}
						JOINT RightShoulder_virtual
						{
							OFFSET 0.000000 0.000000 0.000000
							CHANNELS 3 Xrotation Yrotation Zrotation
							JOINT RightShoulder
							{
								OFFSET -2.196100 4.412496 0.070690
								CHANNELS 3 Xrotation Yrotation Zrotation
								JOINT RightShoulder_split
								{
									OFFSET -2.196100 4.412496 0.070690
									CHANNELS 3 Xrotation Yrotation Zrotation
									JOINT RightArm
									{
										OFFSET -8.771282 -2.981682 -0.094208
										CHANNELS 3 Xrotation Yrotation Zrotation
										JOINT RightForeArm
										{
											OFFSET -8.494598 0.000000 0.000000
											CHANNELS 3 Xrotation Yrotation Zrotation
											JOINT RightHand
											{
												OFFSET -18.483803 0.000000 0.000001
												CHANNELS 3 Xrotation Yrotation Zrotation
												End Site
												{
													OFFSET 0 0 0
												}
											}
										}
									}
								}
							}
						}
					}
				}
			}
		}
	}
}
MOTION
Frames: 10
Frame Time: 0.03333333
-1.681549 29.466728 1.128372 0.000000 0.000000 0.000000 -7.929000 24.689618 7.706315 -29.637697 -18.283083 7.808236 46.212281 -1.417936 -0.043606 -12.888839 -4.935481 -21.215116 -0.000137 -0.000001 -0.000004 0.000000 0.000000 0.000000 -7.929000 24.689618 7.706315 0.622388 -31.166993 -25.603849 53.231933 5.184862 0.549581 -47.775165 -10.897890 14.363125 0.000017 0.000001 -0.000001 0.000000 0.000000 0.000000 -7.929000 24.689618 7.706315 18.997905 1.004988 1.397300 5.096428 1.511987 -0.476951 0.000000 0.000000 0.000000 0.000000 0.000000 0.000000 5.088406 1.550694 -0.475988 -18.172867 -7.374433 -11.412607 -20.891293 -12.073563 1.777839 0.000000 0.000000 0.000000 5.088406 1.550694 -0.475988 -0.787877 -12.075491 -26.714941 0.000000 0.000000 0.000000 -11.942302 -3.432188 -26.261551 55.390905 -49.285183 10.889123 0.000000 0.000000 0.000000 5.088406 1.550694 -0.475988 7.717152 -7.373792 -5.050556 0.000000 0.000000 0.000000 -43.972147 -21.360512 -11.904045 -118.831303 10.484307 148.086452 0.000000 0.000000 0.000000 
-1.811503 29.468761 1.414125 0.000000 0.000000 0.000000 -8.019095 28.612281 8.336848 -31.192610 -21.983688 5.705632 44.002053 -1.136275 -0.044225 -10.540485 -5.015393 -22.167878 -0.000140 -0.000002 -0.000003 0.000000 0.000000 0.000000 -8.019095 28.612281 8.336848 4.671827 -35.355839 -23.763184 49.349896 5.027943 0.604906 -47.664694 -12.163273 14.838367 0.000018 0.000001 0.000001 0.000000 0.000000 0.000000 -8.019095 28.612281 8.336848 19.016160 0.098960 1.561561 5.137556 -0.395258 -0.742507 0.000000 0.000000 0.000000 0.000000 0.000000 0.000000 5.145105 -0.355853 -0.748200 -17.870379 -5.140440 -11.214733 -24.990204 -9.168331 -0.055152 0.000000 0.000000 0.000000 5.145105 -0.355853 -0.748200 -0.729896 -12.936525 -24.594061 0.000000 0.000000 0.000000 -7.448415 5.738896 -26.622686 53.665886 -55.184100 15.413780 0.000000 0.000000 0.000000 5.145105 -0.355853 -0.748200 8.112590 -11.609560 1.893626 0.000000 0.000000 0.000000 -67.056154 -34.147613 -17.067533 -102.494249 5.567634 145.072316 0.000000 0.000000 0.000000 
-1.910560 29.572559 1.513874 0.000000 0.000000 0.000000 -7.375634 29.690600 8.292011 -31.482606 -23.167467 5.285815 41.921058 -1.009390 -0.081482 -9.127404 -4.741563 -22.564607 -0.000135 -0.000002 -0.000003 0.000000 0.000000 0.000000 -7.375634 29.690600 8.292011 5.244058 -36.397959 -22.919581 47.898122 4.920161 0.614553 -47.330236 -12.535619 14.696725 0.000018 0.000000 0.000000 0.000000 0.000000 0.000000 -7.375634 29.690600 8.292011 18.938294 -1.056047 1.673487 4.855967 -2.915585 -1.485521 0.000000 0.000000 0.000000 0.000000 0.000000 0.000000 4.883689 -2.873579 -1.502393 -18.060813 -5.500302 -5.127131 -24.573320 -6.833847 -0.602034 0.000000 0.000000 0.000000 4.883689 -2.873579 -1.502393 -0.316037 -12.738290 -20.094172 0.000000 0.000000 0.000000 -3.377278 12.102863 -31.052748 48.967938 -55.386988 15.024126 0.000000 0.000000 0.000000 4.883689 -2.873579 -1.502393 7.432620 -14.000974 15.289382 0.000000 0.000000 0.000000 -88.040271 -27.657379 -16.830775 -88.510366 5.611623 143.384317 0.000000 0.000000 0.000000 
-1.867915 29.820389 1.481571 0.000000 0.000000 0.000000 -5.911145 26.709400 6.905295 -29.922092 -21.263735 7.467029 41.816167 -1.245007 -0.168629 -10.363080 -3.623123 -22.070325 -0.000137 -0.000002 -0.000003 0.000000 0.000000 0.000000 -5.911145 26.709400 6.905295 2.369539 -33.094876 -22.605385 48.565702 4.704541 0.571684 -46.269276 -11.915367 13.859775 0.000015 0.000002 -0.000000 0.000000 0.000000 0.000000 -5.911145 26.709400 6.905295 18.846164 -1.619201 1.498170 4.550501 -3.858604 -1.671254 0.000000 0.000000 0.000000 0.000000 0.000000 0.000000 4.578958 -3.822015 -1.696237 -14.922700 -5.357104 0.196064 -24.371143 -4.007911 -2.552565 0.000000 0.000000 0.000000 4.578958 -3.822015 -1.696237 -0.221548 -12.860667 -18.877582 0.000000 0.000000 0.000000 -1.061245 14.809870 -32.315677 50.440701 -54.077579 16.009026 0.000000 0.000000 0.000000 4.578958 -3.822015 -1.696237 7.322564 -12.708486 21.788233 0.000000 0.000000 0.000000 -89.621815 -19.762193 -15.733534 -88.461386 9.776953 144.190075 0.000000 0.000000 0.000000 
-1.716714 30.106144 1.373810 0.000000 0.000000 0.000000 -4.301146 21.491387 4.952771 -27.699264 -17.400467 10.955457 43.038559 -1.666520 -0.264606 -13.216287 -2.314048 -21.155994 -0.000138 -0.000001 -0.000004 0.000000 0.000000 0.000000 -4.301146 21.491387 4.952771 -1.797628 -27.403282 -21.813085 49.844648 4.376887 0.498728 -44.321026 -10.978306 12.831855 0.000017 0.000000 0.000000 0.000000 0.000000 0.000000 -4.301146 21.491387 4.952771 19.141878 -1.569391 1.153419 5.072652 -3.373062 -1.212726 0.000000 0.000000 0.000000 0.000000 0.000000 0.000000 5.087346 -3.346277 -1.238952 -14.129571 -3.866753 0.608831 -25.386990 -2.477271 -2.360062 0.000000 0.000000 0.000000 5.087346 -3.346277 -1.238952 -0.008494 -10.673456 -18.318817 0.000000 0.000000 0.000000 -1.564261 12.468347 -31.473662 55.753864 -52.827313 17.774210 0.000000 0.000000 0.000000 5.087346 -3.346277 -1.238952 6.854854 -8.625317 17.121765 0.000000 0.000000 0.000000 -81.879987 -24.154909 -12.454366 -95.197715 12.244533 145.632365 0.000000 0.000000 0.000000 
-1.526824 30.341202 1.237963 0.000000 0.000000 0.000000 -3.149210 16.755574 3.389716 -25.938774 -13.768438 13.807601 44.107538 -2.039744 -0.336864 -15.734437 -1.162303 -20.326431 -0.000139 -0.000003 -0.000003 0.000000 0.000000 0.000000 -3.149210 16.755574 3.389716 -5.298143 -22.408601 -20.771181 50.446975 4.065904 0.441638 -41.939148 -10.160711 12.231745 0.000017 0.000000 0.000000 0.000000 0.000000 0.000000 -3.149210 16.755574 3.389716 19.190513 -0.966785 0.875711 5.130050 -2.094929 -0.843494 0.000000 0.000000 0.000000 0.000000 0.000000 0.000000 5.136508 -2.075506 -0.863114 -14.193349 -2.694913 -1.208742 -26.438750 -2.264630 -1.605993 0.000000 0.000000 0.000000 5.136508 -2.075506 -0.863114 -0.030725 -9.953688 -19.570795 0.000000 0.000000 0.000000 -2.193699 11.932382 -30.434637 57.080765 -54.492902 20.010639 0.000000 0.000000 0.000000 5.136508 -2.075506 -0.863114 6.874501 -6.693014 12.973465 0.000000 0.000000 0.000000 -84.445720 -26.484545 -10.445952 -92.359642 9.746939 146.164245 0.000000 0.000000 0.000000 
-1.361953 30.495213 1.117411 0.000000 0.000000 0.000000 -2.662973 13.926488 2.677150 -24.827056 -11.489065 15.122006 44.412472 -2.241606 -0.381868 -16.993862 -0.409849 -19.699124 -0.000139 0.000000 -0.000003 0.000000 0.000000 0.000000 -2.662973 13.926488 2.677150 -7.301131 -19.441551 -20.272363 50.509430 3.898718 0.421445 -40.148491 -9.712364 12.098950 0.000013 -0.000001 0.000001 0.000000 0.000000 0.000000 -2.662973 13.926488 2.677150 18.940000 -0.581739 0.850770 4.642582 -1.427783 -0.570445 0.000000 0.000000 0.000000 0.000000 0.000000 0.000000 4.647291 -1.412075 -0.584677 -12.426121 -2.144587 -2.452322 -26.881367 -2.471274 -0.966096 0.000000 0.000000 0.000000 4.647291 -1.412075 -0.584677 0.006950 -9.057141 -20.314904 0.000000 0.000000 0.000000 -2.276522 12.295092 -30.836436 55.390754 -56.304179 20.086770 0.000000 0.000000 0.000000 4.647291 -1.412075 -0.584677 7.001969 -5.632083 9.240091 0.000000 0.000000 0.000000 -88.482519 -27.311143 -8.009429 -95.114148 11.258066 149.370172 0.000000 0.000000 0.000000 
-1.238432 30.566299 1.023325 0.000000 0.000000 0.000000 -2.789407 13.350871 2.837480 -24.416851 -10.675815 14.844252 44.035360 -2.244154 -0.395144 -16.884404 -0.360028 -19.215177 -0.000138 -0.000002 -0.000004 0.000000 0.000000 0.000000 -2.789407 13.350871 2.837480 -7.722493 -18.631462 -20.719042 50.468302 3.915576 0.432942 -39.511330 -9.740124 12.321688 0.000015 -0.000001 0.000001 0.000000 0.000000 0.000000 -2.789407 13.350871 2.837480 18.970784 -0.437919 0.870740 4.746987 -1.173638 -0.656539 0.000000 0.000000 0.000000 0.000000 0.000000 0.000000 4.752271 -1.154367 -0.668326 -12.746819 -2.967759 -0.954354 -26.247036 -2.603653 -1.287887 0.000000 0.000000 0.000000 4.752271 -1.154367 -0.668326 -0.013501 -9.635018 -19.746173 0.000000 0.000000 0.000000 -3.124508 11.594723 -30.540822 54.134833 -56.791558 19.838211 0.000000 0.000000 0.000000 4.752271 -1.154367 -0.668326 7.557135 -6.014592 9.279928 0.000000 0.000000 0.000000 -90.007536 -26.922922 -5.731127 -100.407927 15.338940 151.379737 0.000000 0.000000 0.000000 
-1.148575 30.598854 0.932194 0.000000 0.000000 0.000000 -3.248856 13.117383 3.107373 -23.985502 -10.007443 14.556458 43.807361 -2.222034 -0.394653 -16.724198 -0.634090 -18.849364 -0.000140 -0.000002 -0.000004 0.000000 0.000000 0.000000 -3.248856 13.117383 3.107373 -7.641695 -18.239776 -21.204742 50.528770 3.955187 0.442782 -39.193077 -9.769769 12.546818 0.000018 0.000001 0.000001 0.000000 0.000000 0.000000 -3.248856 13.117383 3.107373 18.959768 -0.434557 0.978868 4.750241 -1.192218 -0.601706 0.000000 0.000000 0.000000 0.000000 0.000000 0.000000 4.756418 -1.171552 -0.613349 -12.710238 -3.356319 -0.085783 -25.800391 -2.626197 -1.424364 0.000000 0.000000 0.000000 4.756418 -1.171552 -0.613349 0.009314 -10.360682 -18.406731 0.000000 0.000000 0.000000 -3.421456 10.723640 -31.201189 54.553694 -56.695105 20.724662 0.000000 0.000000 0.000000 4.756418 -1.171552 -0.613349 7.922330 -6.001841 9.698043 0.000000 0.000000 0.000000 -88.415761 -26.899742 -3.761449 -102.000467 16.787500 152.043180 0.000000 0.000000 0.000000 
-1.069652 30.613247 0.845858 0.000000 0.000000 0.000000 -3.834723 12.856587 3.320419 -23.490798 -9.337640 14.429138 43.822518 -2.212503 -0.387762 -16.736581 -0.972037 -18.543433 -0.000140 -0.000003 -0.000003 0.000000 0.000000 0.000000 -3.834723 12.856587 3.320419 -7.369942 -17.838226 -21.540321 50.611015 3.983115 0.448364 -38.931897 -9.811043 12.735730 0.000019 0.000002 0.000001 0.000000 0.000000 0.000000 -3.834723 12.856587 3.320419 18.907922 -0.443174 1.069660 4.650352 -1.235927 -0.291692 0.000000 0.000000 0.000000 0.000000 0.000000 0.000000 4.656452 -1.218638 -0.303459 -12.539623 -3.210789 -0.508897 -25.252478 -2.734783 -1.277330 0.000000 0.000000 0.000000 4.656452 -1.218638 -0.303459 0.013214 -10.564780 -18.114085 0.000000 0.000000 0.000000 -4.158073 9.258007 -31.501358 54.807709 -56.383085 20.922413 0.000000 0.000000 0.000000 4.656452 -1.218638 -0.303459 7.884303 -5.427424 9.194609 0.000000 0.000000 0.000000 -84.398783 -28.277550 -0.715930 -108.388395 20.833076 154.516993 0.000000 0.000000 0.000000 
